<svg xmlns="http://www.w3.org/2000/svg" viewBox="0 0 180 180" fill="none">
  <!-- Background circle -->
  <circle cx="90" cy="90" r="90" fill="#3b82f6"/>
  
  <!-- Main basket body - white -->
  <rect x="45" y="67.5" width="90" height="67.5" rx="9" fill="white" stroke="#e5e7eb" stroke-width="3"/>
  
  <!-- Grid pattern inside basket -->
  <line x1="45" y1="90" x2="135" y2="90" stroke="#d1d5db" stroke-width="2" opacity="0.6"/>
  <line x1="45" y1="112.5" x2="135" y2="112.5" stroke="#d1d5db" stroke-width="2" opacity="0.6"/>
  <line x1="90" y1="67.5" x2="90" y2="135" stroke="#d1d5db" stroke-width="2" opacity="0.6"/>
  <line x1="112.5" y1="67.5" x2="112.5" y2="135" stroke="#d1d5db" stroke-width="2" opacity="0.6"/>
  
  <!-- Handle - darker blue -->
  <path d="M33.75 45 L33.75 90 Q33.75 101.25 45 101.25 L56.25 90" fill="#1e40af" stroke="#1e40af" stroke-width="6.75" stroke-linecap="round"/>
  
  <!-- Base frame - white -->
  <rect x="33.75" y="135" width="112.5" height="9" rx="4.5" fill="white"/>
  
  <!-- Wheels - darker blue -->
  <circle cx="67.5" cy="146.25" r="20.25" fill="#1e40af"/>
  <circle cx="112.5" cy="146.25" r="20.25" fill="#1e40af"/>
  <circle cx="67.5" cy="146.25" r="6.75" fill="white"/>
  <circle cx="112.5" cy="146.25" r="6.75" fill="white"/>
  
  <!-- Additional depth elements -->
  <rect x="67.5" y="78.75" width="45" height="4.5" rx="2.25" fill="#e5e7eb" opacity="0.5"/>
  
  <!-- Shadow for 3D effect -->
  <ellipse cx="90" cy="162" rx="78.75" ry="9" fill="#000000" opacity="0.1"/>
</svg>
