<svg viewBox="0 0 120 50" xmlns="http://www.w3.org/2000/svg">
  <!-- Bow Icon -->
  <g transform="translate(60, 8)">
    <!-- Bow loops -->
    <path d="M-4,-4 Q-6,-6 -4,-8 Q-2,-6 -4,-4" fill="#8B7355" stroke="#8B7355" stroke-width="0.5"/>
    <path d="M4,-4 Q6,-6 4,-8 Q2,-6 4,-4" fill="#8B7355" stroke="#8B7355" stroke-width="0.5"/>
    <!-- Bow tails -->
    <path d="M-4,-8 L-3,-10" stroke="#8B7355" stroke-width="1" stroke-linecap="round"/>
    <path d="M4,-8 L3,-10" stroke="#8B7355" stroke-width="1" stroke-linecap="round"/>
  </g>
  
  <!-- Top horizontal lines extending from bow -->
  <line x1="24" y1="8" x2="60" y2="8" stroke="#8B7355" stroke-width="1"/>
  <line x1="60" y1="8" x2="96" y2="8" stroke="#8B7355" stroke-width="1"/>
  
  <!-- Vertical frame lines for GOLDEN TAG -->
  <line x1="24" y1="8" x2="24" y2="28" stroke="#8B7355" stroke-width="1"/>
  <line x1="96" y1="8" x2="96" y2="28" stroke="#8B7355" stroke-width="1"/>
  
  <!-- Main text: GOLDEN TAG -->
  <text x="60" y="22" text-anchor="middle" font-family="Arial, sans-serif" font-size="10" font-weight="bold" fill="#000000">
    GOLDEN TAG
  </text>
  
  <!-- Bottom horizontal line for CORPORATE GIFTS -->
  <line x1="24" y1="40" x2="96" y2="40" stroke="#8B7355" stroke-width="1"/>
  
  <!-- Vertical lines for CORPORATE GIFTS frame -->
  <line x1="24" y1="40" x2="24" y2="35" stroke="#8B7355" stroke-width="1"/>
  <line x1="96" y1="40" x2="96" y2="35" stroke="#8B7355" stroke-width="1"/>
  
  <!-- Sub-text: CORPORATE GIFTS -->
  <text x="60" y="38" text-anchor="middle" font-family="Arial, sans-serif" font-size="5" font-weight="normal" fill="#8B7355">
    CORPORATE GIFTS
  </text>
</svg>